<?xml version="1.0" ?><svg id="Layer_1" style="enable-background:new 0 0 200 200;" version="1.1" viewBox="0 0 200 200" xml:space="preserve" xmlns="http://www.w3.org/2000/svg" xmlns:xlink="http://www.w3.org/1999/xlink"><style type="text/css">
	.st0{fill:url(#SVGID_1_);}
	.st1{fill:url(#SVGID_2_);}
</style><g><linearGradient gradientUnits="userSpaceOnUse" id="SVGID_1_" x1="167.6109" x2="30.0373" y1="167.6109" y2="30.0373"><stop offset="0" style="stop-color:#007FE2"/><stop offset="1" style="stop-color:#39D3B8"/></linearGradient><path class="st0" d="M175,100c0-10.121-1.986-19.946-5.899-29.198c-3.771-8.931-9.174-16.953-16.063-23.84   c-6.889-6.89-14.91-12.295-23.839-16.062C119.946,26.985,110.122,25,100,25c-10.121,0-19.946,1.985-29.199,5.898   c-8.931,3.771-16.953,9.176-23.839,16.063c-6.89,6.89-12.295,14.911-16.063,23.838C26.984,80.052,25,89.877,25,100   c0,8.761,1.499,17.348,4.456,25.519c0.652,1.803,2.639,2.736,4.446,2.084c1.803-0.652,2.736-2.643,2.083-4.447   c-2.681-7.412-4.041-15.203-4.041-23.157c0-9.189,1.8-18.103,5.352-26.497c3.418-8.1,8.322-15.378,14.575-21.631   C58.123,45.62,65.4,40.717,73.504,37.295c8.394-3.551,17.31-5.351,26.496-5.351c9.188,0,18.102,1.8,26.497,5.351   c8.1,3.419,15.378,8.323,21.631,14.577c6.251,6.251,11.155,13.528,14.575,21.633c3.551,8.394,5.352,17.308,5.352,26.495   s-1.801,18.1-5.355,26.5c-2.818,6.696-6.713,12.897-11.574,18.43c-0.951,1.083-1.961,2.159-2.999,3.198   c-6.254,6.253-13.531,11.157-21.634,14.577c-8.393,3.55-17.307,5.351-26.495,5.351s-18.102-1.801-26.499-5.352   c-1.013-0.427-2.012-0.878-2.999-1.352c-6.906-3.315-13.161-7.753-18.631-13.225c-0.298-0.297-0.594-0.599-0.89-0.905   c0.296-0.306,0.593-0.608,0.89-0.906c6.251-6.251,13.528-11.155,21.632-14.577c8.394-3.551,17.31-5.351,26.496-5.351   c9.188,0,18.102,1.8,26.496,5.351c2.097,0.885,4.172,1.887,6.169,2.981c1.679,0.918,3.79,0.304,4.713-1.378   c0.92-1.683,0.304-3.792-1.379-4.713c-2.201-1.205-4.489-2.311-6.799-3.286c-9.253-3.914-19.077-5.899-29.199-5.899   c-10.121,0-19.946,1.985-29.199,5.898c-8.931,3.771-16.953,9.176-23.839,16.062c-1.13,1.13-2.242,2.315-3.305,3.524   c-1.154,1.311-1.154,3.276,0,4.587c1.063,1.208,2.176,2.394,3.305,3.522c6.887,6.889,14.907,12.293,23.838,16.062   c9.254,3.915,19.078,5.9,29.201,5.9s19.946-1.985,29.197-5.899c8.93-3.769,16.952-9.173,23.843-16.064   c1.143-1.144,2.256-2.33,3.304-3.523c0.001-0.001,0.002-0.003,0.003-0.004c5.355-6.095,9.646-12.93,12.753-20.31   C173.014,119.946,175,110.121,175,100z"/><linearGradient gradientUnits="userSpaceOnUse" id="SVGID_2_" x1="179.2429" x2="41.6693" y1="155.979" y2="18.4054"><stop offset="0" style="stop-color:#007FE2"/><stop offset="1" style="stop-color:#39D3B8"/></linearGradient><path class="st1" d="M127.431,76.736c0-15.125-12.305-27.431-27.431-27.431S72.569,61.611,72.569,76.736   S84.874,104.167,100,104.167S127.431,91.861,127.431,76.736z M79.514,76.736c0-11.296,9.191-20.486,20.486-20.486   s20.486,9.19,20.486,20.486S111.296,97.222,100,97.222S79.514,88.032,79.514,76.736z"/></g></svg>